<?xml version="1.0" encoding="utf-8"?>
<!-- Generator: Adobe Illustrator 17.1.0, SVG Export Plug-In . SVG Version: 6.00 Build 0)  -->
<!DOCTYPE svg PUBLIC "-//W3C//DTD SVG 1.1//EN" "http://www.w3.org/Graphics/SVG/1.1/DTD/svg11.dtd">
<svg version="1.1" id="Your_Icon" xmlns="http://www.w3.org/2000/svg" xmlns:xlink="http://www.w3.org/1999/xlink" x="0px" y="0px"
	 viewBox="0 0 100 100" enable-background="new 0 0 100 100" xml:space="preserve">
<g>
	<path fill="#6487AA" d="M85.7,59.5l9.1-29.4c0.3-1,0.1-2.1-0.5-3c-0.6-0.8-1.6-1.4-2.7-1.4H26L22.2,16c-0.5-1.3-1.7-2.1-3.1-2.1
		H8.3c-1.8,0-3.3,1.5-3.3,3.3c0,1.8,1.5,3.3,3.3,3.3h8.5l3.7,9.6c0,0,0,0.1,0,0.1l0.1,0.3l11.2,29.3c0,0,0,0,0,0l3,7.9
		c-3.2,1.6-5.3,4.9-5.3,8.7c0,5.4,4.4,9.8,9.8,9.8c5.4,0,9.7-4.4,9.7-9.8c0-1.1-0.2-2.1-0.5-3.1h20c-0.3,1-0.5,2-0.5,3.1
		c0,5.4,4.4,9.8,9.8,9.8c5.4,0,9.7-4.4,9.7-9.8c0-5.4-4.4-9.7-9.7-9.7H41.6l-1.8-4.8h42.8C84,61.8,85.3,60.9,85.7,59.5z M77.7,73.2
		c1.7,0,3.1,1.4,3.1,3.1c0,1.7-1.4,3.1-3.1,3.1c-1.7,0-3.1-1.4-3.1-3.1C74.6,74.6,76,73.2,77.7,73.2z M69.8,32.5h17.3L84,42.7H69
		L69.8,32.5z M28.5,32.5h18.6L48,42.7H32.4L28.5,32.5z M42.4,76.3c0,1.7-1.4,3.1-3.1,3.1c-1.7,0-3.1-1.4-3.1-3.1
		c0-1.7,1.4-3.1,3.1-3.1C41,73.2,42.4,74.6,42.4,76.3z M37.2,55.2L33.7,46h14.5l0.7,9.1C48.9,55.2,37.2,55.2,37.2,55.2z M64.7,55.2
		H52.3L51.6,46h13.9L64.7,55.2z M65.7,42.7H51.3l-0.8-10.3h16L65.7,42.7z M68,55.2l0.7-9.1h14.2l-2.8,9.1C80.1,55.2,68,55.2,68,55.2
		z"/>
</g>
</svg>
