<?xml version="1.0" encoding="utf-8"?>
<!-- Generator: Adobe Illustrator 17.1.0, SVG Export Plug-In . SVG Version: 6.00 Build 0)  -->
<!DOCTYPE svg PUBLIC "-//W3C//DTD SVG 1.1//EN" "http://www.w3.org/Graphics/SVG/1.1/DTD/svg11.dtd">
<svg version="1.1" id="Layer_1" xmlns="http://www.w3.org/2000/svg" xmlns:xlink="http://www.w3.org/1999/xlink" x="0px" y="0px"
	 viewBox="0 0 100 47.3" enable-background="new 0 0 100 47.3" xml:space="preserve">
<path fill="#6487AA" d="M98.9,20l-8-8.1H43.7C39.7,4.8,32.1,0,23.4,0C10.5,0,0,10.6,0,23.6c0,13.1,10.5,23.7,23.4,23.7
	c8.7,0,16.2-4.8,20.2-11.9h9.5l7.5-7.5l5.7,5.7l5.5-5.5l5.7,5.7l5.7-5.7l5.7,5.7l9.8-9.8C100.3,22.5,100.4,21.5,98.9,20z M13.2,29.8
	c-3.5,0-6.2-2.8-6.2-6.3c0-3.5,2.7-6.3,6.2-6.3c3.4,0,6.2,2.8,6.2,6.3C19.4,27,16.6,29.8,13.2,29.8z"/>
</svg>
