<?xml version="1.0" encoding="utf-8"?>
<!-- Generator: Adobe Illustrator 17.1.0, SVG Export Plug-In . SVG Version: 6.00 Build 0)  -->
<!DOCTYPE svg PUBLIC "-//W3C//DTD SVG 1.1//EN" "http://www.w3.org/Graphics/SVG/1.1/DTD/svg11.dtd">
<svg version="1.1" id="Layer_1" xmlns="http://www.w3.org/2000/svg" xmlns:xlink="http://www.w3.org/1999/xlink" x="0px" y="0px"
	 viewBox="0 0 100 100" enable-background="new 0 0 100 100" xml:space="preserve">
<g id="Captions" display="none">
</g>
<path fill="#6487AA" d="M80.7,22.3H38.1v6.6h42.6V22.3z M80.7,38.6h-7.1v6.6h7.1V38.6z M80.7,54.8h-7.1v6.6h7.1V54.8z M73.6,77.7
	h7.1v-6.6h-7.1V77.7z M68.5,71.1H45.6c0.2,0.1,0.5,0.2,0.7,0.3c1.2,0.5,2.5,1,3.7,1.5c3.9,1.5,7.3,2.9,9.9,4.8h8.6V71.1z M68.5,45.2
	v-6.6H44c1.4,1.9,2.4,4.1,2.9,6.6H68.5z M94.9,1h-71c-2.8,0-5.1,2.3-5.1,5.1v28.4c2.3-1.5,5-2.4,7.6-2.8V10.2h66v79.7H64.9
	c0.1,2.3,0.2,5.2,0,8.8l0,0.3h30.1c2.8,0,5.1-2.3,5.1-5.1V6.1C100,3.3,97.7,1,94.9,1z M47.6,61.4h21v-6.6H48.4
	c0.2,1.4,0.2,2.5,0.1,3.1C48.4,59,48.1,60.2,47.6,61.4z"/>
<path fill="#6487AA" d="M58.2,83.5c-1.8-2.8-7.8-4.5-13.7-7c-5.9-2.5-7.3-3.3-7.3-3.3l-0.1-5.7c0,0,2.2-1.7,2.9-7.1
	c1.4,0.4,2.8-2.1,2.9-3.4c0.1-1.3-0.2-4.7-1.9-4.4c0.3-2.6,0.6-5,0.5-6.2c-0.4-4.6-4.9-9.4-11.9-9.4c-6.9,0-11.4,4.8-11.9,9.4
	c-0.1,1.3,0.1,3.6,0.5,6.2c-1.7-0.4-2,3.1-1.9,4.4c0.1,1.3,1.5,3.8,2.9,3.4c0.7,5.4,2.9,7.1,2.9,7.1l-0.1,5.7c0,0-1.4,0.8-7.3,3.3
	C9,79,3,80.7,1.2,83.5C-0.4,86,0.1,97.9,0.1,97.9h29.6h29.6C59.3,97.9,59.8,86,58.2,83.5"/>
</svg>
