<?xml version="1.0" encoding="utf-8"?>
<!-- Generator: Adobe Illustrator 17.1.0, SVG Export Plug-In . SVG Version: 6.00 Build 0)  -->
<!DOCTYPE svg PUBLIC "-//W3C//DTD SVG 1.1//EN" "http://www.w3.org/Graphics/SVG/1.1/DTD/svg11.dtd">
<svg version="1.1" id="Layer_1" xmlns="http://www.w3.org/2000/svg" xmlns:xlink="http://www.w3.org/1999/xlink" x="0px" y="0px"
	 viewBox="0 0 960 200" enable-background="new 0 0 960 200" xml:space="preserve">
<g>
	<path fill="#3E6D9D" d="M163.357,65.888c0,1.679-1.36,3.039-3.039,3.039H29.64c-1.679,0-3.039-1.36-3.039-3.039V44.615
		c0-1.679,1.36-3.039,3.039-3.039h130.679c1.679,0,3.039,1.36,3.039,3.039C163.357,44.615,163.357,65.888,163.357,65.888z"/>
	<path fill="#3E6D9D" d="M163.357,106.915c0,1.679-1.36,3.039-3.039,3.039H29.64c-1.679,0-3.039-1.36-3.039-3.039V85.64
		c0-1.679,1.36-3.039,3.039-3.039h130.679c1.679,0,3.039,1.36,3.039,3.039C163.357,85.64,163.357,106.915,163.357,106.915z"/>
	<path fill="#3E6D9D" d="M163.357,147.941c0,1.679-1.36,3.039-3.039,3.039H29.64c-1.679,0-3.039-1.36-3.039-3.039v-21.273
		c0-1.679,1.36-3.039,3.039-3.039h130.679c1.679,0,3.039,1.36,3.039,3.039C163.357,126.668,163.357,147.941,163.357,147.941z"/>
</g>
<line fill="none" stroke="#3E6D9D" stroke-width="7" stroke-miterlimit="10" x1="0" y1="196.5" x2="960" y2="196.5"/>
<g>
	<path fill="#3E6D9D" d="M869.339,19.965H808.86c10.578,6.294,17.554,15.335,22.027,25.192
		c12.35,27.208-1.952,62.495-47.141,102.444h21.589h17.06h54.995c43.413,0,61.197-33.129,61.197-62.133
		C938.586,55.894,918.76,19.965,869.339,19.965z M861.855,117.282h-11.791V50.286h11.976c24.144,0,31.812,16.655,31.812,33.497
		C893.852,106.615,883.559,117.282,861.855,117.282z"/>
	<path fill="#29355C" d="M781.693,124.969c45.554-30.919,53.136-56.613,46.151-76.974c-4.664-13.6-14.401-22.073-25.903-28.239
		h-20.248v46.417h-49.218V19.756H687.74v127.636h44.735v-45.019h49.218V124.969z"/>
	<g>
		<path fill="#29355C" d="M687.626,150.92h7.49v10.471h9.866V150.92h7.49v28.753h-7.49v-11.84h-9.866v11.84h-7.49V150.92z"/>
		<path fill="#29355C" d="M724.351,150.92h7.611l10.752,28.753h-7.812l-1.772-5.155h-10.028l-1.812,5.155h-7.692L724.351,150.92z
			 M724.835,168.962h6.524l-3.181-10.068h-0.08L724.835,168.962z"/>
		<path fill="#29355C" d="M743.881,150.92h7.49v28.753h-7.49V150.92z"/>
		<path fill="#29355C" d="M755.559,150.92h14.658c5.074,0,10.068,2.296,10.068,8.095c0,3.101-1.49,6.041-4.51,7.208v0.08
			c3.06,0.725,3.946,4.148,4.188,6.886c0.08,1.208,0.201,5.436,1.208,6.483h-7.409c-0.644-0.967-0.765-3.785-0.846-4.591
			c-0.201-2.9-0.684-5.879-4.188-5.879h-5.678v10.47h-7.49V150.92z M763.049,163.405h6.282c2.255,0,3.463-1.208,3.463-3.382
			c0-2.135-1.691-3.102-3.785-3.102h-5.96V163.405z"/>
	</g>
	<g>
		<path fill="#3E6D9D" d="M784.404,150.806h9.866c8.86,0,13.813,4.43,13.813,13.692c0,9.625-4.229,15.061-13.813,15.061h-9.866
			V150.806z M788.23,176.338h6.362c2.618,0,9.665-0.725,9.665-11.316c0-6.845-2.536-10.994-9.583-10.994h-6.443V176.338z"/>
		<path fill="#3E6D9D" d="M811.907,150.806h3.826v28.753h-3.826V150.806z"/>
		<path fill="#3E6D9D" d="M821.169,150.806H834.7c5.396,0,8.738,2.94,8.738,7.531c0,3.463-1.53,6.322-4.994,7.289v0.08
			c3.343,0.644,4.028,3.101,4.31,5.92c0.241,2.819,0.08,5.961,1.691,7.934h-4.269c-1.088-1.168-0.484-4.269-1.047-7.088
			c-0.403-2.819-1.088-5.195-4.793-5.195h-9.342v12.282h-3.826V150.806z M832.968,164.055c3.584,0,6.644-0.927,6.644-5.114
			c0-2.819-1.53-4.913-5.114-4.913h-9.503v10.028H832.968z"/>
		<path fill="#3E6D9D" d="M847.746,150.806h19.853v3.222h-16.028v9.141h14.94v3.222h-14.94v9.947h16.149v3.222h-19.975V150.806z"/>
		<path fill="#3E6D9D" d="M891.559,159.465c-0.805-4.068-4.067-6.121-8.054-6.121c-6.846,0-9.746,5.638-9.746,11.638
			c0,6.564,2.9,12.041,9.786,12.041c5.033,0,7.933-3.544,8.295-8.296h3.826c-0.724,7.168-5.194,11.517-12.443,11.517
			c-8.94,0-13.289-6.604-13.289-14.98c0-8.336,4.752-15.142,13.611-15.142c6,0,10.953,3.222,11.839,9.343H891.559z"/>
		<path fill="#3E6D9D" d="M905.934,154.028h-9.584v-3.222h22.994v3.222h-9.584v25.531h-3.826V154.028z"/>
	</g>
</g>
</svg>
